Coordinates
version=1
nRows=13
nColumns=36
inDegrees=yes

Units are S.I. units (second, meters, Newtons, ...)
If the header above contains a line with 'inDegrees', this indicates whether rotational values are in degrees (yes) or radians (no).

endheader
time	pelvis_tilt	pelvis_list	pelvis_rotation	pelvis_tx	pelvis_ty	pelvis_tz	hip_flexion_r	hip_adduction_r	hip_rotation_r	knee_angle_r	knee_angle_r_beta	ankle_angle_r	subtalar_angle_r	mtp_angle_r	hip_flexion_l	hip_adduction_l	hip_rotation_l	knee_angle_l	knee_angle_l_beta	ankle_angle_l	subtalar_angle_l	mtp_angle_l	lumbar_extension	lumbar_bending	lumbar_rotation	arm_flex_r	arm_add_r	arm_rot_r	elbow_flex_r	pro_sup_r	arm_flex_l	arm_add_l	arm_rot_l	elbow_flex_l	pro_sup_l
      1.06000000	     -1.36527567	     -2.00204364	      4.82797616	      1.13372712	      0.95615108	     -0.23728268	     24.78136559	      0.25904432	     -3.86728207	      8.09480580	      0.14128101	     -0.89201360	     -3.02149157	     -7.16262823	     -8.19187103	     -3.11903361	     -5.89036146	      5.28659173	      0.09226843	     19.05539866	     12.77708683	     -7.16262823	    -12.45432724	    -13.10779451	     -9.42586213	      2.45841868	     -6.18017320	     -0.82310644	     42.50361995	    105.30300815	     24.91021939	     -8.88330025	      9.73278904	     41.53827570	    101.83793778
      1.07000000	     -1.70556846	     -1.68940310	      4.88461331	      1.14472792	      0.95348795	     -0.23748476	     25.09508398	     -0.35381089	     -3.28676346	      5.51051661	      0.09617666	     -1.05288302	     -2.03194866	     -7.16497493	     -8.72483485	     -2.79889520	     -5.90746539	      5.05948345	      0.08830464	     19.31267517	     12.88923738	     -7.16497493	    -12.06483790	    -12.95948990	     -9.82519532	      2.15980292	     -6.39447713	     -0.97823915	     42.29510923	    105.28232405	     25.22646127	     -8.76260565	     10.05860607	     41.87327570	    101.87643099
      1.08000000	     -1.88555954	     -1.48451373	      4.91516114	      1.15573174	      0.95099195	     -0.23755289	     25.24173369	     -0.82373478	     -2.53862454	      3.24599241	      0.05665325	     -1.29401225	     -0.83588119	     -7.16786181	     -9.40214675	     -2.62623248	     -5.93619526	      4.86817470	      0.08496568	     19.62792610	     13.05847338	     -7.16786181	    -11.90416179	    -12.64693637	    -10.18349161	      1.98452322	     -6.63549715	     -1.19592174	     42.06158112	    105.25080283	     25.62788469	     -8.73359288	     10.62932799	     42.20330849	    101.93446316
      1.09000000	     -1.91754744	     -1.28834559	      4.91876085	      1.16688813	      0.94864197	     -0.23747052	     25.45268818	     -1.28653781	     -2.65627143	      1.78229224	      0.03110687	     -0.76422873	      1.16574126	     -7.18302971	    -10.19357595	     -2.50516928	     -6.24025974	      4.79825837	      0.08374541	     20.04506232	     13.66589825	     -7.18302971	    -11.89920181	    -12.31051217	    -10.23303612	      1.67641105	     -6.84807806	     -1.77219991	     42.00492067	    105.20693772	     26.37612569	     -8.79846954	     12.46047328	     42.06223305	    101.91756688
      1.10000000	     -2.23494260	     -1.08670142	      4.88288525	      1.17803339	      0.94587264	     -0.23716220	     26.09889715	     -1.70919402	     -2.28920766	      1.00115878	      0.01747352	     -0.15835750	      2.06540151	     -7.18732907	    -10.59213062	     -2.34432020	     -6.26018880	      4.88839548	      0.08531860	     20.38535753	     13.65908739	     -7.18732907	    -11.57049015	    -12.03018458	    -10.41602118	      1.47070722	     -7.04547946	     -2.01193162	     41.81223330	    105.18210550	     26.74217734	     -8.68587661	     12.88047258	     42.26498013	    101.92651322
      1.11000000	     -2.36686284	     -0.95141369	      4.83292278	      1.18945212	      0.94340479	     -0.23670535	     26.60003376	     -1.99041438	     -2.28127838	      0.76652603	      0.01337840	      0.01155080	      2.14390373	     -7.18777022	    -11.16973038	     -2.28835727	     -6.29838652	      5.03223029	      0.08782899	     20.41364513	     13.64557920	     -7.18777022	    -11.41177588	    -11.62442766	    -10.63060812	      1.35881572	     -7.31435484	     -2.10850197	     41.69056146	    105.16788426	     27.00646210	     -8.58050464	     12.96554439	     42.40001725	    101.94376261
      1.12000000	     -2.53493755	     -0.98965163	      4.93569837	      1.20130367	      0.94098480	     -0.23616264	     26.97902194	     -2.14689581	     -2.84886919	      0.78458639	      0.01369362	      1.76242698	      4.31094054	     -7.20311893	    -11.58030286	     -2.48195190	     -6.26562271	      5.43577960	      0.09487225	     20.82985420	     13.63031323	     -7.20311893	    -11.16462723	    -11.07997765	    -10.60763730	      0.99365886	     -7.42286450	     -2.79122330	     41.54480159	    105.14563110	     27.50686816	     -8.59834489	     14.60091552	     42.23140434	    101.99208835
      1.13000000	     -2.61798709	     -0.97421318	      4.98220702	      1.21343234	      0.93883573	     -0.23551811	     27.11090285	     -2.25902837	     -2.67418363	      0.91807884	      0.01602350	      1.81851302	      4.28162898	     -7.20358344	    -12.15926518	     -2.60361182	     -6.22579679	      5.69593019	      0.09941274	     20.80624356	     13.60748185	     -7.20358344	    -10.99108882	    -10.55610908	    -10.80496847	      0.80294188	     -7.66301918	     -2.88440085	     41.39034193	    105.12930743	     27.60449802	     -8.47981794	     14.66940201	     42.33398836	    102.00686865
      1.14000000	     -2.61671697	     -1.31968589	      5.06787358	      1.22562698	      0.93687406	     -0.23449639	     27.01378578	     -1.90218089	     -1.93726336	      1.21326992	      0.02117555	      1.66111842	      2.52006875	     -7.21791137	    -12.60268703	     -3.20079515	     -6.24440916	      6.38554576	      0.11144880	     21.07684193	     13.37095485	     -7.21791137	    -10.95104382	     -9.62733534	    -10.86957105	      0.71336528	     -7.76302116	     -3.44619959	     41.21535548	    105.06047905	     27.75397277	     -8.47505373	     15.35775655	     42.56372412	    102.09805580
      1.15000000	     -2.56909539	     -1.60696429	      5.13982394	      1.23818455	      0.93519844	     -0.23343216	     26.88848716	     -1.61305174	     -1.74315908	      1.91436919	      0.03341205	      1.50002442	      2.20021185	     -7.21918669	    -13.17450597	     -3.71988359	     -6.16730104	      6.92522617	      0.12086800	     20.94269032	     13.25612009	     -7.21918669	    -10.91968567	     -8.75790548	    -10.98055206	      0.63803060	     -7.97121590	     -3.58234754	     41.03194074	    105.02840718	     27.74974851	     -8.37912209	     15.45686545	     42.68646003	    102.12391555
      1.16000000	     -2.44078277	     -2.07187028	      5.35709092	      1.25095863	      0.93383396	     -0.23227516	     26.63803667	     -1.12644903	     -1.91988710	      2.77851638	      0.04849426	      0.56877500	      0.47835307	     -7.22385255	    -13.62240026	     -4.52472421	     -6.42769912	      7.80539340	      0.13622981	     20.90884184	     12.81438478	     -7.22385255	    -11.00074834	     -7.68522674	    -11.20932552	      0.59088783	     -8.05955803	     -3.95866818	     40.79539803	    104.91154003	     27.62373006	     -8.36733747	     15.64179483	     43.03823607	    102.20531650
      1.17000000	     -2.31692511	     -2.50683694	      5.43950017	      1.26393655	      0.93262418	     -0.23081253	     26.38988000	     -0.58876677	     -1.87908265	      3.75291187	      0.06550067	     -0.60418321	     -0.82059433	     -7.22751180	    -14.08525732	     -5.26239000	     -6.52677206	      8.71707525	      0.15214166	     20.61324571	     12.51105841	     -7.22751180	    -11.00818747	     -6.65368223	    -11.25504513	      0.57617812	     -8.20992871	     -4.26854110	     40.59615528	    104.78855956	     27.38965426	     -8.32929911	     15.70822704	     43.26564969	    102.26415623
      1.18000000	     -2.24971682	     -2.99812362	      5.56749783	      1.27693965	      0.93161323	     -0.22910386	     26.01568318	      0.07398377	     -1.10633601	      4.39094923	      0.07663652	     -3.12038728	     -3.67503944	     -7.23867869	    -14.38593662	     -6.08915366	     -6.43095129	      9.76614277	      0.17045135	     20.28808299	     12.17104063	     -7.23867869	    -10.98487517	     -5.58084929	    -11.39504935	      0.59361754	     -8.20661691	     -4.76763594	     40.44368950	    104.42686243	     27.02262548	     -8.34826788	     15.56712226	     43.63960439	    102.39262027
